<?xml version="1.0" standalone="no" ?>
<!DOCTYPE svg PUBLIC "-//W3C//DTD SVG 1.0//EN" "http://www.w3.org/TR/2001/REC-SVG-20010904/DTD/svg10.dtd">
<svg style="vertical-align: -5.527ex" xmlns="http://www.w3.org/2000/svg" width="53.734ex" height="12.411ex" role="img" focusable="false" viewBox="0 -3042.9 23750.4 5485.8">
<style>
  * {
    fill: ;
    background-color: transparent;
  }
</style><g stroke="currentColor" fill="currentColor" stroke-width="0" transform="scale(1,-1)"><g data-mml-node="math"><g data-mml-node="TeXAtom" data-mjx-texclass="ORD"><g data-mml-node="mstyle" transform="scale(1.2)"><g data-mml-node="mtable"><g data-mml-node="mtr" transform="translate(0,1746.8)"><g data-mml-node="mtd"></g><g data-mml-node="mtd"><g data-mml-node="msub"><g data-mml-node="mi"><path data-c="210E" d="M137 683Q138 683 209 688T282 694Q294 694 294 685Q294 674 258 534Q220 386 220 383Q220 381 227 388Q288 442 357 442Q411 442 444 415T478 336Q478 285 440 178T402 50Q403 36 407 31T422 26Q450 26 474 56T513 138Q516 149 519 151T535 153Q555 153 555 145Q555 144 551 130Q535 71 500 33Q466 -10 419 -10H414Q367 -10 346 17T325 74Q325 90 361 192T398 345Q398 404 354 404H349Q266 404 205 306L198 293L164 158Q132 28 127 16Q114 -11 83 -11Q69 -11 59 -2T48 16Q48 30 121 320L195 616Q195 629 188 632T149 637H128Q122 643 122 645T124 664Q129 683 137 683Z"></path></g><g data-mml-node="TeXAtom" transform="translate(609,-150) scale(0.707)" data-mjx-texclass="ORD"><g data-mml-node="mtext"><path data-c="4E" d="M42 46Q74 48 94 56T118 69T128 86V634H124Q114 637 52 637H25V683H232L235 680Q237 679 322 554T493 303L578 178V598Q572 608 568 613T544 627T492 637H475V683H483Q498 680 600 680Q706 680 715 683H724V637H707Q634 633 622 598L621 302V6L614 0H600Q585 0 582 3T481 150T282 443T171 605V345L172 86Q183 50 257 46H274V0H265Q250 3 150 3Q48 3 33 0H25V46H42Z"></path><path data-c="4C" d="M128 622Q121 629 117 631T101 634T58 637H25V683H36Q48 680 182 680Q324 680 348 683H360V637H333Q273 637 258 635T233 622L232 342V129Q232 57 237 52Q243 47 313 47Q384 47 410 53Q470 70 498 110T536 221Q536 226 537 238T540 261T542 272T562 273H582V268Q580 265 568 137T554 5V0H25V46H58Q100 47 109 49T128 61V622Z" transform="translate(750,0)"></path><path data-c="4F" d="M56 340Q56 423 86 494T164 610T270 680T388 705Q521 705 621 601T722 341Q722 260 693 191T617 75T510 4T388 -22T267 3T160 74T85 189T56 340ZM467 647Q426 665 388 665Q360 665 331 654T269 620T213 549T179 439Q174 411 174 354Q174 144 277 61Q327 20 385 20H389H391Q474 20 537 99Q603 188 603 354Q603 411 598 439Q577 592 467 647Z" transform="translate(1375,0)"></path><path data-c="53" d="M55 507Q55 590 112 647T243 704H257Q342 704 405 641L426 672Q431 679 436 687T446 700L449 704Q450 704 453 704T459 705H463Q466 705 472 699V462L466 456H448Q437 456 435 459T430 479Q413 605 329 646Q292 662 254 662Q201 662 168 626T135 542Q135 508 152 480T200 435Q210 431 286 412T370 389Q427 367 463 314T500 191Q500 110 448 45T301 -21Q245 -21 201 -4T140 27L122 41Q118 36 107 21T87 -7T78 -21Q76 -22 68 -22H64Q61 -22 55 -16V101Q55 220 56 222Q58 227 76 227H89Q95 221 95 214Q95 182 105 151T139 90T205 42T305 24Q352 24 386 62T420 155Q420 198 398 233T340 281Q284 295 266 300Q261 301 239 306T206 314T174 325T141 343T112 367T85 402Q55 451 55 507Z" transform="translate(2153,0)"></path></g></g></g></g><g data-mml-node="mtd" transform="translate(4574.6,0)"></g><g data-mml-node="mtd" transform="translate(4574.6,0)"><g data-mml-node="mi"></g><g data-mml-node="mo" transform="translate(277.8,0)"><path data-c="3D" d="M56 347Q56 360 70 367H707Q722 359 722 347Q722 336 708 328L390 327H72Q56 332 56 347ZM56 153Q56 168 72 173H708Q722 163 722 153Q722 140 707 133H70Q56 140 56 153Z"></path></g><g data-mml-node="mo" transform="translate(1333.6,0)"><path data-c="28" d="M94 250Q94 319 104 381T127 488T164 576T202 643T244 695T277 729T302 750H315H319Q333 750 333 741Q333 738 316 720T275 667T226 581T184 443T167 250T184 58T225 -81T274 -167T316 -220T333 -241Q333 -250 318 -250H315H302L274 -226Q180 -141 137 -14T94 250Z"></path></g><g data-mml-node="TeXAtom" data-mjx-texclass="ORD" transform="translate(1722.6,0)"><g data-mml-node="mi"><path data-c="4E" d="M343 705Q358 705 358 698Q360 696 370 658T411 524T484 319Q536 174 590 82L595 73L615 152Q646 274 683 407Q729 571 752 637T799 727Q852 780 937 788Q939 788 947 788T958 789H962Q979 789 979 765Q979 722 951 692Q942 683 924 683Q888 681 859 672T818 654T803 639Q784 608 708 322T631 15Q631 14 630 15Q630 17 629 15Q628 14 628 12Q621 -4 601 -17T560 -31Q550 -31 546 -28T530 -7Q484 67 458 123T398 272Q352 392 314 514L306 535V534Q306 533 296 488T272 379T234 239T185 100T127 -7T61 -50Q34 -50 4 -34T-27 8Q-27 33 -12 61T18 90Q21 90 36 77T87 57H92Q109 57 123 78T162 173Q206 299 232 417T265 599T276 667Q284 681 304 693T343 705Z"></path></g></g><g data-mml-node="mo" transform="translate(2701.6,0)"><path data-c="28" d="M94 250Q94 319 104 381T127 488T164 576T202 643T244 695T277 729T302 750H315H319Q333 750 333 741Q333 738 316 720T275 667T226 581T184 443T167 250T184 58T225 -81T274 -167T316 -220T333 -241Q333 -250 318 -250H315H302L274 -226Q180 -141 137 -14T94 250Z"></path></g><g data-mml-node="mn" transform="translate(3090.6,0)"><path data-c="31" d="M213 578L200 573Q186 568 160 563T102 556H83V602H102Q149 604 189 617T245 641T273 663Q275 666 285 666Q294 666 302 660V361L303 61Q310 54 315 52T339 48T401 46H427V0H416Q395 3 257 3Q121 3 100 0H88V46H114Q136 46 152 46T177 47T193 50T201 52T207 57T213 61V578Z"></path></g><g data-mml-node="mo" transform="translate(3590.6,0)"><path data-c="2C" d="M78 35T78 60T94 103T137 121Q165 121 187 96T210 8Q210 -27 201 -60T180 -117T154 -158T130 -185T117 -194Q113 -194 104 -185T95 -172Q95 -168 106 -156T131 -126T157 -76T173 -3V9L172 8Q170 7 167 6T161 3T152 1T140 0Q113 0 96 17Z"></path></g><g data-mml-node="mi" transform="translate(4035.2,0)"><path data-c="1D441" d="M234 637Q231 637 226 637Q201 637 196 638T191 649Q191 676 202 682Q204 683 299 683Q376 683 387 683T401 677Q612 181 616 168L670 381Q723 592 723 606Q723 633 659 637Q635 637 635 648Q635 650 637 660Q641 676 643 679T653 683Q656 683 684 682T767 680Q817 680 843 681T873 682Q888 682 888 672Q888 650 880 642Q878 637 858 637Q787 633 769 597L620 7Q618 0 599 0Q585 0 582 2Q579 5 453 305L326 604L261 344Q196 88 196 79Q201 46 268 46H278Q284 41 284 38T282 19Q278 6 272 0H259Q228 2 151 2Q123 2 100 2T63 2T46 1Q31 1 31 10Q31 14 34 26T39 40Q41 46 62 46Q130 49 150 85Q154 91 221 362L289 634Q287 635 234 637Z"></path></g><g data-mml-node="mo" transform="translate(4923.2,0)"><path data-c="29" d="M60 749L64 750Q69 750 74 750H86L114 726Q208 641 251 514T294 250Q294 182 284 119T261 12T224 -76T186 -143T145 -194T113 -227T90 -246Q87 -249 86 -250H74Q66 -250 63 -250T58 -247T55 -238Q56 -237 66 -225Q221 -64 221 250T66 725Q56 737 55 738Q55 746 60 749Z"></path></g><g data-mml-node="mo" transform="translate(5534.4,0)"><path data-c="2B" d="M56 237T56 250T70 270H369V420L370 570Q380 583 389 583Q402 583 409 568V270H707Q722 262 722 250T707 230H409V-68Q401 -82 391 -82H389H387Q375 -82 369 -68V230H70Q56 237 56 250Z"></path></g><g data-mml-node="mi" transform="translate(6534.7,0)"><path data-c="1D457" d="M297 596Q297 627 318 644T361 661Q378 661 389 651T403 623Q403 595 384 576T340 557Q322 557 310 567T297 596ZM288 376Q288 405 262 405Q240 405 220 393T185 362T161 325T144 293L137 279Q135 278 121 278H107Q101 284 101 286T105 299Q126 348 164 391T252 441Q253 441 260 441T272 442Q296 441 316 432Q341 418 354 401T367 348V332L318 133Q267 -67 264 -75Q246 -125 194 -164T75 -204Q25 -204 7 -183T-12 -137Q-12 -110 7 -91T53 -71Q70 -71 82 -81T95 -112Q95 -148 63 -167Q69 -168 77 -168Q111 -168 139 -140T182 -74L193 -32Q204 11 219 72T251 197T278 308T289 365Q289 372 288 376Z"></path></g><g data-mml-node="TeXAtom" data-mjx-texclass="ORD" transform="translate(6946.7,0)"><g data-mml-node="mi"><path data-c="4E" d="M343 705Q358 705 358 698Q360 696 370 658T411 524T484 319Q536 174 590 82L595 73L615 152Q646 274 683 407Q729 571 752 637T799 727Q852 780 937 788Q939 788 947 788T958 789H962Q979 789 979 765Q979 722 951 692Q942 683 924 683Q888 681 859 672T818 654T803 639Q784 608 708 322T631 15Q631 14 630 15Q630 17 629 15Q628 14 628 12Q621 -4 601 -17T560 -31Q550 -31 546 -28T530 -7Q484 67 458 123T398 272Q352 392 314 514L306 535V534Q306 533 296 488T272 379T234 239T185 100T127 -7T61 -50Q34 -50 4 -34T-27 8Q-27 33 -12 61T18 90Q21 90 36 77T87 57H92Q109 57 123 78T162 173Q206 299 232 417T265 599T276 667Q284 681 304 693T343 705Z"></path></g></g><g data-mml-node="mo" transform="translate(7925.7,0)"><path data-c="28" d="M94 250Q94 319 104 381T127 488T164 576T202 643T244 695T277 729T302 750H315H319Q333 750 333 741Q333 738 316 720T275 667T226 581T184 443T167 250T184 58T225 -81T274 -167T316 -220T333 -241Q333 -250 318 -250H315H302L274 -226Q180 -141 137 -14T94 250Z"></path></g><g data-mml-node="mn" transform="translate(8314.7,0)"><path data-c="31" d="M213 578L200 573Q186 568 160 563T102 556H83V602H102Q149 604 189 617T245 641T273 663Q275 666 285 666Q294 666 302 660V361L303 61Q310 54 315 52T339 48T401 46H427V0H416Q395 3 257 3Q121 3 100 0H88V46H114Q136 46 152 46T177 47T193 50T201 52T207 57T213 61V578Z"></path></g><g data-mml-node="mo" transform="translate(8814.7,0)"><path data-c="2C" d="M78 35T78 60T94 103T137 121Q165 121 187 96T210 8Q210 -27 201 -60T180 -117T154 -158T130 -185T117 -194Q113 -194 104 -185T95 -172Q95 -168 106 -156T131 -126T157 -76T173 -3V9L172 8Q170 7 167 6T161 3T152 1T140 0Q113 0 96 17Z"></path></g><g data-mml-node="mi" transform="translate(9259.3,0)"><path data-c="1D441" d="M234 637Q231 637 226 637Q201 637 196 638T191 649Q191 676 202 682Q204 683 299 683Q376 683 387 683T401 677Q612 181 616 168L670 381Q723 592 723 606Q723 633 659 637Q635 637 635 648Q635 650 637 660Q641 676 643 679T653 683Q656 683 684 682T767 680Q817 680 843 681T873 682Q888 682 888 672Q888 650 880 642Q878 637 858 637Q787 633 769 597L620 7Q618 0 599 0Q585 0 582 2Q579 5 453 305L326 604L261 344Q196 88 196 79Q201 46 268 46H278Q284 41 284 38T282 19Q278 6 272 0H259Q228 2 151 2Q123 2 100 2T63 2T46 1Q31 1 31 10Q31 14 34 26T39 40Q41 46 62 46Q130 49 150 85Q154 91 221 362L289 634Q287 635 234 637Z"></path></g><g data-mml-node="mo" transform="translate(10147.3,0)"><path data-c="29" d="M60 749L64 750Q69 750 74 750H86L114 726Q208 641 251 514T294 250Q294 182 284 119T261 12T224 -76T186 -143T145 -194T113 -227T90 -246Q87 -249 86 -250H74Q66 -250 63 -250T58 -247T55 -238Q56 -237 66 -225Q221 -64 221 250T66 725Q56 737 55 738Q55 746 60 749Z"></path></g><g data-mml-node="mo" transform="translate(10536.3,0)"><path data-c="29" d="M60 749L64 750Q69 750 74 750H86L114 726Q208 641 251 514T294 250Q294 182 284 119T261 12T224 -76T186 -143T145 -194T113 -227T90 -246Q87 -249 86 -250H74Q66 -250 63 -250T58 -247T55 -238Q56 -237 66 -225Q221 -64 221 250T66 725Q56 737 55 738Q55 746 60 749Z"></path></g></g></g><g data-mml-node="mtr" transform="translate(0,-669.5)"><g data-mml-node="mtd"></g><g data-mml-node="mtd"><g data-mml-node="mi"><path data-c="210E" d="M137 683Q138 683 209 688T282 694Q294 694 294 685Q294 674 258 534Q220 386 220 383Q220 381 227 388Q288 442 357 442Q411 442 444 415T478 336Q478 285 440 178T402 50Q403 36 407 31T422 26Q450 26 474 56T513 138Q516 149 519 151T535 153Q555 153 555 145Q555 144 551 130Q535 71 500 33Q466 -10 419 -10H414Q367 -10 346 17T325 74Q325 90 361 192T398 345Q398 404 354 404H349Q266 404 205 306L198 293L164 158Q132 28 127 16Q114 -11 83 -11Q69 -11 59 -2T48 16Q48 30 121 320L195 616Q195 629 188 632T149 637H128Q122 643 122 645T124 664Q129 683 137 683Z"></path></g></g><g data-mml-node="mtd" transform="translate(4574.6,0)"></g><g data-mml-node="mtd" transform="translate(4574.6,0)"><g data-mml-node="mi"></g><g data-mml-node="mo" transform="translate(277.8,0)"><path data-c="3D" d="M56 347Q56 360 70 367H707Q722 359 722 347Q722 336 708 328L390 327H72Q56 332 56 347ZM56 153Q56 168 72 173H708Q722 163 722 153Q722 140 707 133H70Q56 140 56 153Z"></path></g><g data-mml-node="mrow" transform="translate(1333.6,0)"><g data-mml-node="mo"><svg width="278" height="3232.5" y="-1366.3" x="27.5" viewBox="0 -400.4 278 3232.5"><path data-c="2223" d="M139 -249H137Q125 -249 119 -235V251L120 737Q130 750 139 750Q152 750 159 735V-235Q151 -249 141 -249H139Z" transform="scale(1,4.854)"></path></svg></g><g data-mml-node="msqrt" transform="translate(333,0)"><g transform="translate(1020,0)"><g data-mml-node="mstyle"><g data-mml-node="mfrac"><g data-mml-node="mi" transform="translate(1081.2,676)"><path data-c="1D43E" d="M285 628Q285 635 228 637Q205 637 198 638T191 647Q191 649 193 661Q199 681 203 682Q205 683 214 683H219Q260 681 355 681Q389 681 418 681T463 682T483 682Q500 682 500 674Q500 669 497 660Q496 658 496 654T495 648T493 644T490 641T486 639T479 638T470 637T456 637Q416 636 405 634T387 623L306 305Q307 305 490 449T678 597Q692 611 692 620Q692 635 667 637Q651 637 651 648Q651 650 654 662T659 677Q662 682 676 682Q680 682 711 681T791 680Q814 680 839 681T869 682Q889 682 889 672Q889 650 881 642Q878 637 862 637Q787 632 726 586Q710 576 656 534T556 455L509 418L518 396Q527 374 546 329T581 244Q656 67 661 61Q663 59 666 57Q680 47 717 46H738Q744 38 744 37T741 19Q737 6 731 0H720Q680 3 625 3Q503 3 488 0H478Q472 6 472 9T474 27Q478 40 480 43T491 46H494Q544 46 544 71Q544 75 517 141T485 216L427 354L359 301L291 248L268 155Q245 63 245 58Q245 51 253 49T303 46H334Q340 37 340 35Q340 19 333 5Q328 0 317 0Q314 0 280 1T180 2Q118 2 85 2T49 1Q31 1 31 11Q31 13 34 25Q38 41 42 43T65 46Q92 46 125 49Q139 52 144 61Q147 65 216 339T285 628Z"></path></g><g data-mml-node="mrow" transform="translate(220,-686)"><g data-mml-node="mi"><path data-c="1D43E" d="M285 628Q285 635 228 637Q205 637 198 638T191 647Q191 649 193 661Q199 681 203 682Q205 683 214 683H219Q260 681 355 681Q389 681 418 681T463 682T483 682Q500 682 500 674Q500 669 497 660Q496 658 496 654T495 648T493 644T490 641T486 639T479 638T470 637T456 637Q416 636 405 634T387 623L306 305Q307 305 490 449T678 597Q692 611 692 620Q692 635 667 637Q651 637 651 648Q651 650 654 662T659 677Q662 682 676 682Q680 682 711 681T791 680Q814 680 839 681T869 682Q889 682 889 672Q889 650 881 642Q878 637 862 637Q787 632 726 586Q710 576 656 534T556 455L509 418L518 396Q527 374 546 329T581 244Q656 67 661 61Q663 59 666 57Q680 47 717 46H738Q744 38 744 37T741 19Q737 6 731 0H720Q680 3 625 3Q503 3 488 0H478Q472 6 472 9T474 27Q478 40 480 43T491 46H494Q544 46 544 71Q544 75 517 141T485 216L427 354L359 301L291 248L268 155Q245 63 245 58Q245 51 253 49T303 46H334Q340 37 340 35Q340 19 333 5Q328 0 317 0Q314 0 280 1T180 2Q118 2 85 2T49 1Q31 1 31 11Q31 13 34 25Q38 41 42 43T65 46Q92 46 125 49Q139 52 144 61Q147 65 216 339T285 628Z"></path></g><g data-mml-node="mo" transform="translate(1111.2,0)"><path data-c="2B" d="M56 237T56 250T70 270H369V420L370 570Q380 583 389 583Q402 583 409 568V270H707Q722 262 722 250T707 230H409V-68Q401 -82 391 -82H389H387Q375 -82 369 -68V230H70Q56 237 56 250Z"></path></g><g data-mml-node="mn" transform="translate(2111.4,0)"><path data-c="31" d="M213 578L200 573Q186 568 160 563T102 556H83V602H102Q149 604 189 617T245 641T273 663Q275 666 285 666Q294 666 302 660V361L303 61Q310 54 315 52T339 48T401 46H427V0H416Q395 3 257 3Q121 3 100 0H88V46H114Q136 46 152 46T177 47T193 50T201 52T207 57T213 61V578Z"></path></g></g><rect width="2811.4" height="60" x="120" y="220"></rect></g></g></g><g data-mml-node="mo" transform="translate(0,148.8)"><path data-c="221A" d="M424 -948Q422 -947 313 -434T202 80L170 31Q165 24 157 10Q137 -21 137 -21Q131 -16 124 -8L111 5L264 248L473 -720Q473 -717 727 359T983 1440Q989 1450 1001 1450Q1007 1450 1013 1445T1020 1433Q1020 1425 742 244T460 -941Q458 -950 439 -950H436Q424 -950 424 -948Z"></path></g><rect width="3051.4" height="72" x="1020" y="1526.8"></rect></g><g data-mml-node="mo" transform="translate(4626.7,0)"><path data-c="2B" d="M56 237T56 250T70 270H369V420L370 570Q380 583 389 583Q402 583 409 568V270H707Q722 262 722 250T707 230H409V-68Q401 -82 391 -82H389H387Q375 -82 369 -68V230H70Q56 237 56 250Z"></path></g><g data-mml-node="msub" transform="translate(5626.9,0)"><g data-mml-node="mi"><path data-c="210E" d="M137 683Q138 683 209 688T282 694Q294 694 294 685Q294 674 258 534Q220 386 220 383Q220 381 227 388Q288 442 357 442Q411 442 444 415T478 336Q478 285 440 178T402 50Q403 36 407 31T422 26Q450 26 474 56T513 138Q516 149 519 151T535 153Q555 153 555 145Q555 144 551 130Q535 71 500 33Q466 -10 419 -10H414Q367 -10 346 17T325 74Q325 90 361 192T398 345Q398 404 354 404H349Q266 404 205 306L198 293L164 158Q132 28 127 16Q114 -11 83 -11Q69 -11 59 -2T48 16Q48 30 121 320L195 616Q195 629 188 632T149 637H128Q122 643 122 645T124 664Q129 683 137 683Z"></path></g><g data-mml-node="TeXAtom" transform="translate(609,-150) scale(0.707)" data-mjx-texclass="ORD"><g data-mml-node="mtext"><path data-c="4E" d="M42 46Q74 48 94 56T118 69T128 86V634H124Q114 637 52 637H25V683H232L235 680Q237 679 322 554T493 303L578 178V598Q572 608 568 613T544 627T492 637H475V683H483Q498 680 600 680Q706 680 715 683H724V637H707Q634 633 622 598L621 302V6L614 0H600Q585 0 582 3T481 150T282 443T171 605V345L172 86Q183 50 257 46H274V0H265Q250 3 150 3Q48 3 33 0H25V46H42Z"></path><path data-c="4C" d="M128 622Q121 629 117 631T101 634T58 637H25V683H36Q48 680 182 680Q324 680 348 683H360V637H333Q273 637 258 635T233 622L232 342V129Q232 57 237 52Q243 47 313 47Q384 47 410 53Q470 70 498 110T536 221Q536 226 537 238T540 261T542 272T562 273H582V268Q580 265 568 137T554 5V0H25V46H58Q100 47 109 49T128 61V622Z" transform="translate(750,0)"></path><path data-c="4F" d="M56 340Q56 423 86 494T164 610T270 680T388 705Q521 705 621 601T722 341Q722 260 693 191T617 75T510 4T388 -22T267 3T160 74T85 189T56 340ZM467 647Q426 665 388 665Q360 665 331 654T269 620T213 549T179 439Q174 411 174 354Q174 144 277 61Q327 20 385 20H389H391Q474 20 537 99Q603 188 603 354Q603 411 598 439Q577 592 467 647Z" transform="translate(1375,0)"></path><path data-c="53" d="M55 507Q55 590 112 647T243 704H257Q342 704 405 641L426 672Q431 679 436 687T446 700L449 704Q450 704 453 704T459 705H463Q466 705 472 699V462L466 456H448Q437 456 435 459T430 479Q413 605 329 646Q292 662 254 662Q201 662 168 626T135 542Q135 508 152 480T200 435Q210 431 286 412T370 389Q427 367 463 314T500 191Q500 110 448 45T301 -21Q245 -21 201 -4T140 27L122 41Q118 36 107 21T87 -7T78 -21Q76 -22 68 -22H64Q61 -22 55 -16V101Q55 220 56 222Q58 227 76 227H89Q95 221 95 214Q95 182 105 151T139 90T205 42T305 24Q352 24 386 62T420 155Q420 198 398 233T340 281Q284 295 266 300Q261 301 239 306T206 314T174 325T141 343T112 367T85 402Q55 451 55 507Z" transform="translate(2153,0)"></path></g></g></g><g data-mml-node="msqrt" transform="translate(8201.4,0)"><g transform="translate(1020,0)"><g data-mml-node="mstyle"><g data-mml-node="mfrac"><g data-mml-node="mn" transform="translate(1914.7,676)"><path data-c="31" d="M213 578L200 573Q186 568 160 563T102 556H83V602H102Q149 604 189 617T245 641T273 663Q275 666 285 666Q294 666 302 660V361L303 61Q310 54 315 52T339 48T401 46H427V0H416Q395 3 257 3Q121 3 100 0H88V46H114Q136 46 152 46T177 47T193 50T201 52T207 57T213 61V578Z"></path></g><g data-mml-node="mrow" transform="translate(220,-710)"><g data-mml-node="mn"><path data-c="32" d="M109 429Q82 429 66 447T50 491Q50 562 103 614T235 666Q326 666 387 610T449 465Q449 422 429 383T381 315T301 241Q265 210 201 149L142 93L218 92Q375 92 385 97Q392 99 409 186V189H449V186Q448 183 436 95T421 3V0H50V19V31Q50 38 56 46T86 81Q115 113 136 137Q145 147 170 174T204 211T233 244T261 278T284 308T305 340T320 369T333 401T340 431T343 464Q343 527 309 573T212 619Q179 619 154 602T119 569T109 550Q109 549 114 549Q132 549 151 535T170 489Q170 464 154 447T109 429Z"></path></g><g data-mml-node="mo" transform="translate(500,0)"><path data-c="28" d="M94 250Q94 319 104 381T127 488T164 576T202 643T244 695T277 729T302 750H315H319Q333 750 333 741Q333 738 316 720T275 667T226 581T184 443T167 250T184 58T225 -81T274 -167T316 -220T333 -241Q333 -250 318 -250H315H302L274 -226Q180 -141 137 -14T94 250Z"></path></g><g data-mml-node="mi" transform="translate(889,0)"><path data-c="1D43E" d="M285 628Q285 635 228 637Q205 637 198 638T191 647Q191 649 193 661Q199 681 203 682Q205 683 214 683H219Q260 681 355 681Q389 681 418 681T463 682T483 682Q500 682 500 674Q500 669 497 660Q496 658 496 654T495 648T493 644T490 641T486 639T479 638T470 637T456 637Q416 636 405 634T387 623L306 305Q307 305 490 449T678 597Q692 611 692 620Q692 635 667 637Q651 637 651 648Q651 650 654 662T659 677Q662 682 676 682Q680 682 711 681T791 680Q814 680 839 681T869 682Q889 682 889 672Q889 650 881 642Q878 637 862 637Q787 632 726 586Q710 576 656 534T556 455L509 418L518 396Q527 374 546 329T581 244Q656 67 661 61Q663 59 666 57Q680 47 717 46H738Q744 38 744 37T741 19Q737 6 731 0H720Q680 3 625 3Q503 3 488 0H478Q472 6 472 9T474 27Q478 40 480 43T491 46H494Q544 46 544 71Q544 75 517 141T485 216L427 354L359 301L291 248L268 155Q245 63 245 58Q245 51 253 49T303 46H334Q340 37 340 35Q340 19 333 5Q328 0 317 0Q314 0 280 1T180 2Q118 2 85 2T49 1Q31 1 31 11Q31 13 34 25Q38 41 42 43T65 46Q92 46 125 49Q139 52 144 61Q147 65 216 339T285 628Z"></path></g><g data-mml-node="mo" transform="translate(2000.2,0)"><path data-c="2B" d="M56 237T56 250T70 270H369V420L370 570Q380 583 389 583Q402 583 409 568V270H707Q722 262 722 250T707 230H409V-68Q401 -82 391 -82H389H387Q375 -82 369 -68V230H70Q56 237 56 250Z"></path></g><g data-mml-node="mn" transform="translate(3000.4,0)"><path data-c="31" d="M213 578L200 573Q186 568 160 563T102 556H83V602H102Q149 604 189 617T245 641T273 663Q275 666 285 666Q294 666 302 660V361L303 61Q310 54 315 52T339 48T401 46H427V0H416Q395 3 257 3Q121 3 100 0H88V46H114Q136 46 152 46T177 47T193 50T201 52T207 57T213 61V578Z"></path></g><g data-mml-node="mo" transform="translate(3500.4,0)"><path data-c="29" d="M60 749L64 750Q69 750 74 750H86L114 726Q208 641 251 514T294 250Q294 182 284 119T261 12T224 -76T186 -143T145 -194T113 -227T90 -246Q87 -249 86 -250H74Q66 -250 63 -250T58 -247T55 -238Q56 -237 66 -225Q221 -64 221 250T66 725Q56 737 55 738Q55 746 60 749Z"></path></g></g><rect width="4089.4" height="60" x="120" y="220"></rect></g></g></g><g data-mml-node="mo" transform="translate(0,44.3)"><path data-c="221A" d="M983 1739Q988 1750 1001 1750Q1008 1750 1013 1745T1020 1733Q1020 1726 742 244T460 -1241Q458 -1250 439 -1250H436Q424 -1250 424 -1248L410 -1166Q395 -1083 367 -920T312 -601L201 44L137 -83L111 -57L187 96L264 247Q265 246 369 -357Q470 -958 473 -963L727 384Q979 1729 983 1739Z"></path></g><rect width="4329.4" height="72" x="1020" y="1722.3"></rect></g><g data-mml-node="mo" transform="translate(13550.9,0)"><svg width="278" height="3232.5" y="-1366.3" x="27.5" viewBox="0 -400.4 278 3232.5"><path data-c="2223" d="M139 -249H137Q125 -249 119 -235V251L120 737Q130 750 139 750Q152 750 159 735V-235Q151 -249 141 -249H139Z" transform="scale(1,4.854)"></path></svg></g></g></g></g></g></g></g></g></g></svg>