<svg width="161.95" height="73.901" viewBox="0 0 161.95 73.901" xmlns="http://www.w3.org/2000/svg"><g id="svgGroup" stroke-linecap="round" fill-rule="evenodd" font-size="9pt" stroke="#ffffff" stroke-width="0.25mm" fill="#000" style="stroke:#ffffff;stroke-width:0.25mm;fill:#000"><path d="M 2.35 0.8 L 55.85 0.8 L 55.85 5.75 Q 55.85 8.05 54.55 9.95 L 17.45 62.35 L 54.95 62.35 L 54.95 73.1 L 0 73.1 L 0 67.8 Q 0 66.8 0.35 65.875 Q 0.7 64.95 1.25 64.15 L 38.45 11.5 L 2.35 11.5 L 2.35 0.8 Z M 107.95 7.6 L 104.65 13.95 A 5.499 5.499 0 0 1 104.261 14.616 Q 103.856 15.202 103.375 15.5 A 2.958 2.958 0 0 1 102.277 15.902 A 3.909 3.909 0 0 1 101.65 15.95 A 3.126 3.126 0 0 1 100.77 15.815 Q 100.389 15.703 99.977 15.499 A 7.062 7.062 0 0 1 99.4 15.175 A 60.01 60.01 0 0 0 98.22 14.464 Q 97.406 13.985 96.45 13.45 Q 94.75 12.5 92.475 11.725 Q 90.2 10.95 87.1 10.95 A 19.595 19.595 0 0 0 84.789 11.08 Q 83.61 11.22 82.595 11.512 A 11.322 11.322 0 0 0 82.225 11.625 A 11.667 11.667 0 0 0 80.258 12.461 A 9.167 9.167 0 0 0 78.725 13.5 Q 77.3 14.7 76.6 16.375 A 9.146 9.146 0 0 0 75.929 19.251 A 10.896 10.896 0 0 0 75.9 20.05 A 7.515 7.515 0 0 0 76.163 22.085 A 5.874 5.874 0 0 0 77.325 24.3 A 10.706 10.706 0 0 0 79.343 26.143 A 14.08 14.08 0 0 0 81.1 27.2 Q 83.45 28.4 86.45 29.35 Q 89.45 30.3 92.575 31.375 Q 95.7 32.45 98.7 33.875 Q 101.7 35.3 104.05 37.475 A 16.055 16.055 0 0 1 107.454 42.028 A 18.7 18.7 0 0 1 107.825 42.8 A 15.091 15.091 0 0 1 108.871 46.169 Q 109.25 48.13 109.25 50.45 A 25.367 25.367 0 0 1 108.144 58 A 23.599 23.599 0 0 1 107.575 59.625 Q 105.9 63.9 102.675 67.075 A 22.303 22.303 0 0 1 96.766 71.212 A 26.642 26.642 0 0 1 94.8 72.075 A 25.823 25.823 0 0 1 88.972 73.576 A 34.355 34.355 0 0 1 84.15 73.9 Q 80.7 73.9 77.35 73.225 Q 74 72.55 70.925 71.3 Q 67.85 70.05 65.175 68.3 A 28.533 28.533 0 0 1 60.799 64.8 A 26.297 26.297 0 0 1 60.4 64.4 L 64.3 57.95 Q 64.85 57.25 65.625 56.775 Q 66.4 56.3 67.35 56.3 A 3.579 3.579 0 0 1 68.524 56.511 Q 69.257 56.765 70.05 57.325 A 64.484 64.484 0 0 0 71.419 58.265 Q 72.364 58.897 73.475 59.6 A 22.546 22.546 0 0 0 75.625 60.794 A 30.628 30.628 0 0 0 78.125 61.875 Q 80.511 62.79 83.753 62.888 A 26.194 26.194 0 0 0 84.55 62.9 A 19.487 19.487 0 0 0 88.034 62.609 Q 91.331 62.009 93.45 60.175 A 8.829 8.829 0 0 0 96.308 55.238 A 13.472 13.472 0 0 0 96.6 52.35 A 9.319 9.319 0 0 0 96.391 50.322 Q 96.055 48.811 95.175 47.7 Q 93.75 45.9 91.4 44.675 A 25.329 25.329 0 0 0 88.551 43.416 A 32.386 32.386 0 0 0 86.05 42.6 Q 83.05 41.75 79.95 40.75 Q 76.85 39.75 73.85 38.35 Q 70.85 36.95 68.5 34.7 A 15.774 15.774 0 0 1 65.6 30.885 A 19.317 19.317 0 0 1 64.725 29.075 A 16.622 16.622 0 0 1 63.751 25.821 Q 63.441 24.249 63.344 22.442 A 31.616 31.616 0 0 1 63.3 20.75 Q 63.3 16.8 64.875 13.05 Q 66.45 9.3 69.475 6.4 A 21.523 21.523 0 0 1 74.502 2.842 A 26.413 26.413 0 0 1 76.9 1.75 Q 81.3 0 86.95 0 A 35.895 35.895 0 0 1 94.559 0.782 A 30.824 30.824 0 0 1 98.75 2 A 28.134 28.134 0 0 1 105.012 5.219 A 24.636 24.636 0 0 1 107.95 7.6 Z M 133 0.8 L 133 62 L 161.95 62 L 161.95 73.1 L 119.55 73.1 L 119.55 0.8 L 133 0.8 Z" vector-effect="non-scaling-stroke"/></g></svg>