<svg width="804.5" height="362.003" viewBox="0 0 804.5 362.003" xmlns="http://www.w3.org/2000/svg"><g id="svgGroup" stroke-linecap="round" fill-rule="nonzero" font-size="9pt" stroke="#ffffff" stroke-width="0.25mm" fill="#ffffff" style="stroke:#ffffff;stroke-width:0.25mm;fill:#ffffff"><path d="M 247.5 356.001 L 0 356.001 L 0 319.001 L 186 47.001 L 8.5 47.001 L 8.5 6.001 L 240.5 6.001 L 240.5 42.001 L 54.5 314.001 L 247.5 314.001 L 247.5 356.001 Z M 282.5 326.501 L 306.5 286.501 Q 324.5 301.501 347 311.001 A 116.742 116.742 0 0 0 373.852 318.55 A 160.591 160.591 0 0 0 399.5 320.501 A 139.905 139.905 0 0 0 422.236 318.769 Q 442.637 315.403 456.5 305.501 Q 476.741 291.043 477.473 266.83 A 60.58 60.58 0 0 0 477.5 265.001 A 59.698 59.698 0 0 0 475.813 250.537 A 49.082 49.082 0 0 0 471.5 239.251 Q 465.529 228.056 448.419 217.357 A 129.227 129.227 0 0 0 448.25 217.251 A 160.522 160.522 0 0 0 435.882 210.361 Q 422.69 203.687 403.826 196.402 A 592.91 592.91 0 0 0 397.5 194.001 Q 372.021 184.092 353.804 174.058 A 197.478 197.478 0 0 1 340 165.751 Q 320.096 152.559 310.691 135.938 A 66.513 66.513 0 0 1 309.25 133.251 A 83.333 83.333 0 0 1 301.646 109.893 A 114.639 114.639 0 0 1 300 90.001 Q 300 65.001 313.75 44.751 Q 327.5 24.501 354.25 12.251 A 127.789 127.789 0 0 1 383.749 3.075 Q 399.963 0.001 419 0.001 Q 450 0.001 474.75 6.251 Q 499.5 12.501 523 24.001 L 505.5 64.501 A 157.478 157.478 0 0 0 484.871 54.407 A 208.43 208.43 0 0 0 465.75 47.751 Q 443 41.001 418 41.001 Q 394.787 41.001 378.501 47.434 A 63.082 63.082 0 0 0 366 54.001 A 49.508 49.508 0 0 0 355.183 63.825 A 36.797 36.797 0 0 0 347 87.501 A 52.322 52.322 0 0 0 348.462 100.11 A 42.809 42.809 0 0 0 352.5 110.501 A 34.557 34.557 0 0 0 357.841 117.624 Q 363.462 123.519 372.956 129.233 A 117.509 117.509 0 0 0 374.25 130.001 A 165.014 165.014 0 0 0 385.331 135.862 Q 396.676 141.376 412.73 147.614 A 650.076 650.076 0 0 0 423 151.501 A 406.142 406.142 0 0 1 447.892 161.647 Q 469.82 171.501 484.75 182.001 Q 507.5 198.001 517 216.751 A 87.893 87.893 0 0 1 525.706 246.065 A 110.777 110.777 0 0 1 526.5 259.501 A 108.551 108.551 0 0 1 523.164 287.004 A 85.523 85.523 0 0 1 510.25 315.001 A 98.089 98.089 0 0 1 475.592 345.114 A 121.783 121.783 0 0 1 465.25 350.001 A 152.607 152.607 0 0 1 428.201 360.021 A 200.136 200.136 0 0 1 399.5 362.001 A 236.834 236.834 0 0 1 360.622 358.937 A 190.245 190.245 0 0 1 333 352.251 A 191.029 191.029 0 0 1 306.166 341.339 A 142.164 142.164 0 0 1 282.5 326.501 Z M 804.5 356.001 L 596.5 356.001 L 596.5 6.001 L 644 6.001 L 644 313.501 L 804.5 313.501 L 804.5 356.001 Z" vector-effect="non-scaling-stroke"/></g></svg>